<svg xmlns="http://www.w3.org/2000/svg" viewBox="0 0 148.37 247.28"><defs><style>.cls-1{fill:#00aeef;}.cls-2{fill:#fff;}</style></defs><title>GP_logo_RGB</title><g id="Layer_2" data-name="Layer 2"><g id="Layer_1-2" data-name="Layer 1"><rect class="cls-1" width="148.37" height="247.28"/><path class="cls-2" d="M27.17,96.63c5,0,9.12-5.95,9.12-13.28s-4.08-13.29-9.12-13.29-9.12,6-9.12,13.29S22.13,96.63,27.17,96.63ZM26.4,74c3.13,0,6,3.79,6,9.36s-2.82,9.35-6,9.35-5.68-4.49-5.68-9.35S23.26,74,26.4,74Z"/><path class="cls-2" d="M29.05,109.84c9.7.63,19.24-10.81,19.24-26.49s-9.54-27.13-19.24-26.5c-10.66.7-17,12.44-17,26.5S18.39,109.15,29.05,109.84Zm-.68-49.08c7.08-.39,16.09,8.06,16.1,22.59s-9,23-16.1,22.58c-9-.5-14.06-12.34-14.06-22.58S19.41,61.26,28.37,60.76Z"/><path class="cls-2" d="M93.05,116.31c-6.36,3.67-9.47,10.18-7,14.54s9.71,4.93,16.07,1.26,9.46-10.18,6.94-14.55S99.4,112.64,93.05,116.31Zm7.8,13.48c-4.21,2.43-9.37,2.47-10.94-.25s.3-7,5.12-9.83,9.51-2.23,11.08.48S105.06,127.35,100.85,129.79Z"/><path class="cls-2" d="M119.61,109.33c-4.3-8.71-19-11.25-32.56-3.41s-18.72,21.83-13.33,29.9c5.93,8.89,19.29,8.53,31.46,1.51S124.34,118.91,119.61,109.33ZM77.44,134.46c-3.88-5.94-1.06-18,11.52-25.23s24.4-3.69,27.6,2.64c4,8-3.65,18.35-12.52,23.48S82.36,142,77.44,134.46Z"/><path class="cls-2" d="M128.74,83.57A24.14,24.14,0,0,0,135,74.81c2.59-6.21,1.26-12.79-2.17-19.05A23.85,23.85,0,0,1,132,73.07a20.93,20.93,0,0,1-6.13,8.21,34.25,34.25,0,0,0-10.16-4.74c5.23-2,9.28-5.36,11.39-9.78,5-10.49,2-20.13-6.35-28.57,6.14,8.1,7.81,17.54,3.34,26.31-6,11.68-24.31,13.81-41.22,4h0C66,58.79,58.66,41.83,65.8,30.83c5.36-8.26,14.36-11.53,24.45-10.26-11.49-3-21.34-.8-27.92,8.79-2.74,4-3.65,9.13-2.8,14.59a34.37,34.37,0,0,0-9.13-6.46,20.94,20.94,0,0,1,4-9.23A23.89,23.89,0,0,1,69,18.9c-7.13.16-13.49,2.31-17.57,7.65A24.34,24.34,0,0,0,47,36.13a24.25,24.25,0,0,0-10.72-1c-6.67.86-11.7,5.3-15.41,11.39a23.84,23.84,0,0,1,15.4-7.94,21,21,0,0,1,10.18,1.21,34.26,34.26,0,0,0,1,11.16c-4.34-3.53-9.28-5.35-14.16-5-11.6.91-18.44,8.32-21.57,19.79C15.64,56.35,23,50.19,32.81,49.68,45.91,49,56.93,63.83,56.93,83.35h0c0,19.52-11,34.35-24.12,33.66-9.83-.51-17.17-6.67-21.11-16,3.13,11.47,10,18.88,21.57,19.78,4.83.38,9.73-1.4,14-4.87a34.48,34.48,0,0,0-1,11.14,20.88,20.88,0,0,1-10,1.13,23.84,23.84,0,0,1-15.4-7.94c3.71,6.1,8.74,10.53,15.41,11.4a24.47,24.47,0,0,0,10.5-1,24.36,24.36,0,0,0,4.46,9.81c4.08,5.34,10.44,7.49,17.57,7.65a23.86,23.86,0,0,1-14.57-9.37,20.93,20.93,0,0,1-4-9.42,34.25,34.25,0,0,0,9.19-6.42c-.89,5.52,0,10.72,2.78,14.75,6.58,9.59,16.41,11.81,27.91,8.78-10.09,1.28-19.09-2-24.45-10.25-7.14-11,.19-28,17.09-37.73h0c16.9-9.76,35.25-7.62,41.21,4.06,4.47,8.77,2.81,18.21-3.34,26.3C129,120.35,132,110.72,127,100.23c-2.09-4.38-6.08-7.73-11.24-9.73a34.29,34.29,0,0,0,10.17-4.67,20.93,20.93,0,0,1,6,8.09,23.88,23.88,0,0,1,.83,17.3c3.42-6.26,4.75-12.83,2.16-19A24.32,24.32,0,0,0,128.74,83.57ZM80.93,72a52.16,52.16,0,0,0,9.38,4.25,59.47,59.47,0,0,0-14.07,5.09L75.71,81,75,80.59a59.56,59.56,0,0,0-2.57-14.73A51.52,51.52,0,0,0,80.93,72ZM50,41.4c10.8,6,19.38,20.29,21,36.54C57.77,68.37,49.74,53.77,50,41.4Zm-.18,84C49.66,113,57.73,98.45,71,88.94,69.34,105.19,60.7,119.45,49.85,125.39ZM71.28,84.14a59.72,59.72,0,0,0-11.47,9.59,51.45,51.45,0,0,0,1-10.38,51.55,51.55,0,0,0-1-10.24,59.82,59.82,0,0,0,11.44,9.63c0,.2,0,.4,0,.61S71.29,83.87,71.28,84.14ZM80.77,95a51.22,51.22,0,0,0-8.37,6A59.9,59.9,0,0,0,75,86.31c.18-.11.34-.22.52-.32l.69-.38a60,60,0,0,0,14,5.14A50.7,50.7,0,0,0,80.77,95Zm-.24-11.58c14.91-6.7,31.58-6.34,42.14.08C112.06,89.89,95.41,90.19,80.53,83.46Z"/><path class="cls-2" d="M93.21,50.68c6.36,3.67,13.55,3.1,16.07-1.26s-.59-10.87-6.94-14.54-13.55-3.11-16.07,1.26S86.86,47,93.21,50.68ZM90.05,37.42c1.57-2.71,6.72-2.67,10.93-.24s6.83,6.88,5.26,9.6S100,50,95.17,47.26,88.48,40.14,90.05,37.42Z"/><path class="cls-2" d="M73.89,31.17c-5.39,8.07-.25,22.06,13.33,29.9s28.26,5.29,32.56-3.41c4.73-9.58-2.26-21-14.43-28S79.82,22.28,73.89,31.17Zm30.31.47c8.88,5.12,16.58,15.46,12.53,23.47-3.2,6.33-15,9.91-27.61,2.65S73.73,38.46,77.61,32.53C82.53,25,95.33,26.52,104.2,31.64Z"/><path class="cls-2" d="M73,190V177.78c0-6.24-3.43-8.16-8.33-8.16s-8.33,1.92-8.33,8.16V190c0,6.25,3.44,8.17,8.33,8.17S73,196.21,73,190Zm-10.68.73V177.07c0-1.76.9-2.53,2.35-2.53s2.35.77,2.35,2.53v13.62c0,1.74-.9,2.52-2.35,2.52S62.35,192.43,62.35,190.69Z"/><path class="cls-2" d="M25.66,169.62c-4.89,0-8.33,1.92-8.33,8.16V190c0,5.81,3.52,7.66,7,7.66A7.64,7.64,0,0,0,30,195.8l1,1.55h3V181.71H26.1v4.41h2.16v4.63c0,1.27-1.39,2.21-2.84,2.21s-2.11-.78-2.11-2.52V177.07c0-1.76.91-2.53,2.35-2.53s2.36.53,2.36,2.28h0v1.29h6v-.58C34,172.06,30.56,169.62,25.66,169.62Z"/><path class="cls-2" d="M78.41,170.48v26.87H89.13c3.65,0,5.78-1.86,5.78-5.43v-4.54c0-2.42-1.56-3.71-3.65-4.13v-.12c2.53-.52,3-2.39,3-4.38V175c0-2.49-2.25-4.54-5.48-4.54Zm5.82,4.88H87c1.24,0,1.52.65,1.52,1.17v3.08c0,1.18-.48,1.56-1.66,1.56H84.23ZM89,190.63c0,1.22-.43,1.78-1.67,1.78H84.23v-6.7h3.21c1.19,0,1.6.57,1.6,1.73Z"/><path class="cls-2" d="M103.75,170.48l-6.08,26.87h6.08l1-5.23h5.87l1,5.23h6.14l-6.08-26.87Zm4.07,16.65h-2.07l.81-4.18,1.07-5.54h.19l1.86,9.72Z"/><polygon class="cls-2" points="127.39 170.48 121.31 170.48 121.31 197.35 135.08 197.35 135.08 191.89 127.39 191.89 127.39 170.48"/><path class="cls-2" d="M49.32,224.27c0,1.75-.91,2.52-2.35,2.52s-2.35-.77-2.35-2.52v-20.2h-6v19.48c0,6.24,3.43,8.16,8.33,8.16s8.33-1.92,8.33-8.16V204.07h-6Z"/><path class="cls-2" d="M28.25,204.07H17.67v26.87h6v-8.59h3.83c3.77,0,6.22-1.8,6.22-5.13v-8.61C33.73,206.12,31.49,204.07,28.25,204.07ZM28,215.75c0,1.19-.48,1.57-1.66,1.57h-2.7V209h2.85c1.24,0,1.51.64,1.51,1.17Z"/><path class="cls-2" d="M90.69,216.43c-1.83-1.24-3.32-2.13-4.58-2.94a2.82,2.82,0,0,1-1.62-2.86c0-1.27.55-2.34,2.19-2.34a2.18,2.18,0,0,1,2.18,2.43V213h6v-2.31c0-4.23-2.74-7.45-8.12-7.45s-8.21,3.39-8.21,7.45c0,4.6.93,5.48,6,8.62,2.81,1.75,3.25,2,3.86,2.72s.51,1.27.51,2.66a1.93,1.93,0,0,1-2,2.13c-1.45,0-2.35-.77-2.35-2.52v-2.85h-6v2.13c0,6.24,3.27,8.16,8.17,8.16,6.46,0,8.31-2.38,8.31-8.54C95,218.61,93.08,218.06,90.69,216.43Z"/><polygon class="cls-2" points="106.02 219.51 113.73 219.51 113.73 214.32 106.02 214.32 106.02 209.46 114.51 209.46 114.51 204.07 100.08 204.07 100.08 230.94 114.63 230.94 114.63 225.48 106.02 225.48 106.02 219.51"/><polygon class="cls-2" points="67.34 204.07 61.26 204.07 61.26 230.94 75.02 230.94 75.02 225.48 67.34 225.48 67.34 204.07"/><polygon class="cls-2" points="39.82 170.48 39.82 197.35 53.59 197.35 53.59 191.89 45.9 191.89 45.9 170.48 39.82 170.48"/></g></g></svg>